# xmcd
#
# Track frame offsets: 
#        150
#        13362
#        28800
#        41937
#        54130
#        67850
#        82645
#        96992
#        109350
#        120935
#
# Disc length: 1841 seconds
#
# Revision: 2
# Processed by: cddbd v1.5PL3 Copyright (c) Steve Scherf et al.
# Submitted via: ExactAudioCopy v0.95a3
#
DISCID=79072f0a
DTITLE=Waylon Jennings - The Eagle
DYEAR=1990
DGENRE=
TTITLE0=Workin' Cheap
TTITLE1=What Bothers Me Most
TTITLE2=The Eagle
TTITLE3=Her Mam
TTITLE4=Wrong
TTITLE5=Where Corn Don't Grow
TTITLE6=Reno And Me
TTITLE7=Too Close To Call
TTITLE8=Waking Up With You
TTITLE9=Old Church Hymns And Nursery Rhymes
EXTD=
EXTT0=
EXTT1=
EXTT2=
EXTT3=
EXTT4=
EXTT5=
EXTT6=
EXTT7=
EXTT8=
EXTT9=
PLAYORDER=
